# xmcd
#
# Track frame offsets:
#	150
#	15400
#	27822
#	45035
#	57732
#	74422
#	102160
#	121727
#	138377
#	147337
#	173592
#	188905
#	206067
#	224060
#	245270
#
# Disc length: 3468 seconds
#
# Revision: 0
# Processed by: cddbd v1.4PL0 Copyright (c) Steve Scherf et al.
# Submitted via: dBpowerAMP V4.0
#
DISCID=d50d8a0f
DTITLE=Tarheel Slim - No Time At All
DYEAR=1900
DGENRE=Blues
TTITLE0=So Sweet, So Sweet
TTITLE1=Married Woman Blues
TTITLE2=The Guy With The .45 (Big Chief Ellis Piano)
TTITLE3=No Time At All
TTITLE4=My Baby's Gone
TTITLE5=Weeping Willow
TTITLE6=Walking (Big Chief Ellis Piano)
TTITLE7='Fore Day Creep
TTITLE8=Jitterbug Rag (Blind Boy Fuller)
TTITLE9=Some Cold, Rainy Day
TTITLE10=Screaming And Crying (Big Chief Ellis Piano)
TTITLE11=Open Nose
TTITLE12=Dark Shadows
TTITLE13=Superstitious (Dan Delsanto Guitar)
TTITLE14=180 Days
EXTD=
EXTT0=
EXTT1=
EXTT2=
EXTT3=
EXTT4=
EXTT5=
EXTT6=
EXTT7=
EXTT8=
EXTT9=
EXTT10=
EXTT11=
EXTT12=
EXTT13=
EXTT14=
PLAYORDER=
